<svg width="185" height="64" viewBox="0 0 185 64" fill="none" xmlns="http://www.w3.org/2000/svg">
<path d="M27.402 36.344H31.632V38H25.35V25.49H27.402V36.344ZM42.938 32.798C42.938 33.17 42.914 33.506 42.866 33.806H35.288C35.348 34.598 35.642 35.234 36.17 35.714C36.698 36.194 37.346 36.434 38.114 36.434C39.218 36.434 39.998 35.972 40.454 35.048H42.668C42.368 35.96 41.822 36.71 41.03 37.298C40.25 37.874 39.278 38.162 38.114 38.162C37.166 38.162 36.314 37.952 35.558 37.532C34.814 37.1 34.226 36.5 33.794 35.732C33.374 34.952 33.164 34.052 33.164 33.032C33.164 32.012 33.368 31.118 33.776 30.35C34.196 29.57 34.778 28.97 35.522 28.55C36.278 28.13 37.142 27.92 38.114 27.92C39.05 27.92 39.884 28.124 40.616 28.532C41.348 28.94 41.918 29.516 42.326 30.26C42.734 30.992 42.938 31.838 42.938 32.798ZM40.796 32.15C40.784 31.394 40.514 30.788 39.986 30.332C39.458 29.876 38.804 29.648 38.024 29.648C37.316 29.648 36.71 29.876 36.206 30.332C35.702 30.776 35.402 31.382 35.306 32.15H40.796ZM44.7734 32.996C44.7734 32 44.9774 31.118 45.3854 30.35C45.8054 29.582 46.3694 28.988 47.0774 28.568C47.7974 28.136 48.5894 27.92 49.4534 27.92C50.2334 27.92 50.9114 28.076 51.4874 28.388C52.0754 28.688 52.5434 29.066 52.8914 29.522V28.082H54.9614V38H52.8914V36.524C52.5434 36.992 52.0694 37.382 51.4694 37.694C50.8694 38.006 50.1854 38.162 49.4174 38.162C48.5654 38.162 47.7854 37.946 47.0774 37.514C46.3694 37.07 45.8054 36.458 45.3854 35.678C44.9774 34.886 44.7734 33.992 44.7734 32.996ZM52.8914 33.032C52.8914 32.348 52.7474 31.754 52.4594 31.25C52.1834 30.746 51.8174 30.362 51.3614 30.098C50.9054 29.834 50.4134 29.702 49.8854 29.702C49.3574 29.702 48.8654 29.834 48.4094 30.098C47.9534 30.35 47.5814 30.728 47.2934 31.232C47.0174 31.724 46.8794 32.312 46.8794 32.996C46.8794 33.68 47.0174 34.28 47.2934 34.796C47.5814 35.312 47.9534 35.708 48.4094 35.984C48.8774 36.248 49.3694 36.38 49.8854 36.38C50.4134 36.38 50.9054 36.248 51.3614 35.984C51.8174 35.72 52.1834 35.336 52.4594 34.832C52.7474 34.316 52.8914 33.716 52.8914 33.032ZM60.2086 29.522C60.5086 29.018 60.9046 28.628 61.3966 28.352C61.9006 28.064 62.4946 27.92 63.1786 27.92V30.044H62.6566C61.8526 30.044 61.2406 30.248 60.8206 30.656C60.4126 31.064 60.2086 31.772 60.2086 32.78V38H58.1566V28.082H60.2086V29.522ZM70.5688 27.92C71.3488 27.92 72.0448 28.082 72.6568 28.406C73.2808 28.73 73.7668 29.21 74.1148 29.846C74.4628 30.482 74.6368 31.25 74.6368 32.15V38H72.6028V32.456C72.6028 31.568 72.3808 30.89 71.9368 30.422C71.4928 29.942 70.8868 29.702 70.1188 29.702C69.3508 29.702 68.7388 29.942 68.2828 30.422C67.8388 30.89 67.6168 31.568 67.6168 32.456V38H65.5648V28.082H67.6168V29.216C67.9528 28.808 68.3788 28.49 68.8948 28.262C69.4228 28.034 69.9808 27.92 70.5688 27.92ZM96.1061 25.49V38H94.0541V29.432L90.2381 38H88.8161L84.9821 29.432V38H82.9301V25.49H85.1441L89.5361 35.3L93.9101 25.49H96.1061ZM103.605 38.162C102.669 38.162 101.823 37.952 101.067 37.532C100.311 37.1 99.7171 36.5 99.2851 35.732C98.8531 34.952 98.6371 34.052 98.6371 33.032C98.6371 32.024 98.8591 31.13 99.3031 30.35C99.7471 29.57 100.353 28.97 101.121 28.55C101.889 28.13 102.747 27.92 103.695 27.92C104.643 27.92 105.501 28.13 106.269 28.55C107.037 28.97 107.643 29.57 108.087 30.35C108.531 31.13 108.753 32.024 108.753 33.032C108.753 34.04 108.525 34.934 108.069 35.714C107.613 36.494 106.989 37.1 106.197 37.532C105.417 37.952 104.553 38.162 103.605 38.162ZM103.605 36.38C104.133 36.38 104.625 36.254 105.081 36.002C105.549 35.75 105.927 35.372 106.215 34.868C106.503 34.364 106.647 33.752 106.647 33.032C106.647 32.312 106.509 31.706 106.233 31.214C105.957 30.71 105.591 30.332 105.135 30.08C104.679 29.828 104.187 29.702 103.659 29.702C103.131 29.702 102.639 29.828 102.183 30.08C101.739 30.332 101.385 30.71 101.121 31.214C100.857 31.706 100.725 32.312 100.725 33.032C100.725 34.1 100.995 34.928 101.535 35.516C102.087 36.092 102.777 36.38 103.605 36.38ZM113.334 29.522C113.634 29.018 114.03 28.628 114.522 28.352C115.026 28.064 115.62 27.92 116.304 27.92V30.044H115.782C114.978 30.044 114.366 30.248 113.946 30.656C113.538 31.064 113.334 31.772 113.334 32.78V38H111.282V28.082H113.334V29.522ZM127.78 32.798C127.78 33.17 127.756 33.506 127.708 33.806H120.13C120.19 34.598 120.484 35.234 121.012 35.714C121.54 36.194 122.188 36.434 122.956 36.434C124.06 36.434 124.84 35.972 125.296 35.048H127.51C127.21 35.96 126.664 36.71 125.872 37.298C125.092 37.874 124.12 38.162 122.956 38.162C122.008 38.162 121.156 37.952 120.4 37.532C119.656 37.1 119.068 36.5 118.636 35.732C118.216 34.952 118.006 34.052 118.006 33.032C118.006 32.012 118.21 31.118 118.618 30.35C119.038 29.57 119.62 28.97 120.364 28.55C121.12 28.13 121.984 27.92 122.956 27.92C123.892 27.92 124.726 28.124 125.458 28.532C126.19 28.94 126.76 29.516 127.168 30.26C127.576 30.992 127.78 31.838 127.78 32.798ZM125.638 32.15C125.626 31.394 125.356 30.788 124.828 30.332C124.3 29.876 123.646 29.648 122.866 29.648C122.158 29.648 121.552 29.876 121.048 30.332C120.544 30.776 120.244 31.382 120.148 32.15H125.638Z" fill="#69B99D"/>
<g filter="url(#filter0_d_24_19)">
<path fill-rule="evenodd" clip-rule="evenodd" d="M159 32C159 37.52 154.51 42 149 42L148.72 41.9962C143.33 41.8478 139 37.4264 139 32C139 26.49 143.48 22 149 22C154.51 22 159 26.49 159 32ZM147.02 28C146.73 28.3 146.73 28.77 147.03 29.06L149.98 32L147.03 34.94C146.73 35.23 146.73 35.71 147.02 36C147.32 36.3 147.79 36.3 148.08 36L151.57 32.53C151.71 32.39 151.79 32.2 151.79 32C151.79 31.8 151.71 31.61 151.57 31.47L148.08 28C147.94 27.85 147.75 27.78 147.56 27.78C147.36 27.78 147.17 27.85 147.02 28Z" fill="#69B99D"/>
</g>
<defs>
<filter id="filter0_d_24_19" x="117" y="0" width="64" height="64" filterUnits="userSpaceOnUse" color-interpolation-filters="sRGB">
<feFlood flood-opacity="0" result="BackgroundImageFix"/>
<feColorMatrix in="SourceAlpha" type="matrix" values="0 0 0 0 0 0 0 0 0 0 0 0 0 0 0 0 0 0 127 0" result="hardAlpha"/>
<feOffset/>
<feGaussianBlur stdDeviation="10"/>
<feColorMatrix type="matrix" values="0 0 0 0 0.411765 0 0 0 0 0.72549 0 0 0 0 0.615686 0 0 0 0.58 0"/>
<feBlend mode="normal" in2="BackgroundImageFix" result="effect1_dropShadow_24_19"/>
<feBlend mode="normal" in="SourceGraphic" in2="effect1_dropShadow_24_19" result="shape"/>
</filter>
</defs>
</svg>
